<svg xmlns="http://www.w3.org/2000/svg" version="1.1" xmlns:xlink="http://www.w3.org/1999/xlink" xmlns:svgjs="http://svgjs.com/svgjs" width="500" height="500"><svg version="1.1" id="SvgjsSvg1001" xmlns="http://www.w3.org/2000/svg" xmlns:xlink="http://www.w3.org/1999/xlink" x="0px" y="0px" viewBox="0 0 500 500" style="enable-background:new 0 0 500 500;" xml:space="preserve">
<path style="fill:#1C1C1C;" d="M75.37,129.76c0-30.06,24.36-54.42,54.42-54.42h240.14c30.05,0,54.42,24.37,54.42,54.42v240.14
	c0,30.05-24.37,54.42-54.42,54.42H129.79c-30.06,0-54.42-24.37-54.42-54.42L75.37,129.76L75.37,129.76z"></path>
<path style="fill:#3B3C3B;" d="M424.35,188.69v181.22c0,30.05-24.37,54.42-54.42,54.42H129.79c-30.06,0-54.42-24.37-54.42-54.42
	v-66.73L424.35,188.69z"></path>
<path id="SvgjsPath1000" style="fill:#C9C9C9;" d="M364.15,248.38c0,0,21.19,63.76,127.49,104.51c0,0-74.48,57.92-173.45,9.85
	c0,0,48.03-18.31,24.63-55.27c-18.2-28.73-120.18-19.22-91.17,55.74l0,0c0,0-63.75,21.18-104.5,127.49c0,0-57.93-74.48-9.85-173.45
	c0,0,18.3,48.04,55.26,24.63c28.73-18.2,19.22-120.18-55.74-91.17l0,0c0,0-21.19-63.77-127.49-104.51c0,0,74.48-57.92,173.46-9.85
	c0,0-48.04,18.31-24.64,55.27c18.2,28.73,120.18,19.22,91.16-55.74l0,0c0,0,63.77-21.19,104.51-127.49c0,0,57.92,74.48,9.85,173.45
	c0,0-18.3-48.04-55.26-24.63C279.67,175.41,289.18,277.39,364.15,248.38"></path>
<path style="fill:#010101;" d="M251.65,363.22c0,0-63.81,21.24-104.56,127.54l5.13-26.09C152.22,464.67,187.6,382.16,251.65,363.22
	L251.65,363.22z"></path>
<path style="fill:#FFFFFF;" d="M147.91,334.91c0,0-25.91,65.36,4.31,129.76l-5.09,26.03c0,0-57.93-74.48-9.86-173.45
	C137.28,317.25,143.97,330.98,147.91,334.91z"></path>
<path style="fill:#010101;" d="M364.15,248.38c0,0,21.24,63.81,127.55,104.56l-26.09-5.13C465.61,347.81,383.1,312.43,364.15,248.38
	L364.15,248.38z"></path>
<path style="fill:#FFFFFF;" d="M335.85,352.12c0,0,65.37,25.91,129.77-4.31l26.03,5.09c0,0-74.48,57.93-173.45,9.85
	C318.19,362.75,331.92,356.07,335.85,352.12z"></path>
<path style="fill:#010101;" d="M249.31,135.88c0,0,63.82-21.24,104.56-127.55l-5.13,26.09C348.75,34.42,313.37,116.93,249.31,135.88
	L249.31,135.88z"></path>
<path style="fill:#FFFFFF;" d="M353.05,164.18c0,0,25.91-65.37-4.31-129.77l5.09-26.03c0,0,57.93,74.48,9.86,173.45
	C363.69,181.84,357,168.11,353.05,164.18z"></path>
<path style="fill:#010101;" d="M136.76,250.66c0,0-21.19-63.76-127.49-104.51l26.09,5.13c0,0,82.51,35.39,101.46,99.43
	L136.76,250.66z"></path>
<path style="fill:#FFFFFF;" d="M165.12,146.97c0,0-65.37-25.91-129.77,4.31l-26.03-5.09c0,0,74.48-57.92,173.46-9.85
	C182.79,136.35,169.05,143.03,165.12,146.97z"></path>
<circle style="fill:#85171A;" cx="249.86" cy="249.83" r="93.73"></circle>
<circle style="fill:#D61F2D;" cx="249.86" cy="249.83" r="64.02"></circle>
<circle style="fill:#020202;" cx="249.86" cy="249.83" r="54.4"></circle>
</svg><style>@media (prefers-color-scheme: light) { :root { filter: none; } }
</style></svg>